<svg id="Ebene_1" data-name="Ebene 1" xmlns="http://www.w3.org/2000/svg" viewBox="0 0 104.19 56.06"><defs><style>.cls-1{fill:red;}.cls-2{fill:none;}</style></defs><title>logo</title><path class="cls-1" d="M189.85,179.86a11.66,11.66,0,0,0-4.21-4.66,15.58,15.58,0,0,0-3.59-1.76l0,0a1.58,1.58,0,0,1,0-3l.31-.12a13.76,13.76,0,0,0,3.69-2.13,11.52,11.52,0,0,0,3.39-4.23,12.82,12.82,0,0,0,0-10.83,11.91,11.91,0,0,0-3.45-4.26Q181,145,171.66,145h-3.14a1.59,1.59,0,0,0-1.58,1.59v1.57a1.57,1.57,0,0,0,1.22,1.54,6.08,6.08,0,0,1,1.38.43,5,5,0,0,1,1.75,1.4,6.23,6.23,0,0,1,.9,1.9,7.84,7.84,0,0,1,.37,2.32v9.35a5.61,5.61,0,0,1-1.6,3.41,4.36,4.36,0,0,1-1.54.94,6.64,6.64,0,0,1-1,.25,1.59,1.59,0,0,0-1.32,1.56v1.54a1.59,1.59,0,0,0,1.24,1.54,6.41,6.41,0,0,1,1.1.32,4.33,4.33,0,0,1,1.52,1.06,5,5,0,0,1,1.29,2.1,11.55,11.55,0,0,1,.35,3.2v9.31a6.93,6.93,0,0,1-1.35,4.71,4.24,4.24,0,0,1-1.69,1.17,6.81,6.81,0,0,1-1.28.32,1.58,1.58,0,0,0-1.3,1.56v1.32a1.58,1.58,0,0,0,1.58,1.58h3.3a34.47,34.47,0,0,0,8.43-.84,16.29,16.29,0,0,0,5.89-2.89,13,13,0,0,0,5.16-11A14.14,14.14,0,0,0,189.85,179.86Z" transform="translate(-87.12 -144.94)"/><path class="cls-1" d="M120.16,165.85a11.62,11.62,0,0,0,4.14,4.71,15.86,15.86,0,0,0,3.56,1.81h0a1.59,1.59,0,0,1,0,3l-.32.11a13.47,13.47,0,0,0-3.72,2.09,11.55,11.55,0,0,0-3.44,4.17,12.54,12.54,0,0,0-1.28,5.4,12.41,12.41,0,0,0,1.12,5.43,11.77,11.77,0,0,0,3.38,4.31q4.88,3.93,14.22,4.05l3.14,0a1.57,1.57,0,0,0,1.6-1.55l0-1.58a1.56,1.56,0,0,0-1.2-1.55,6,6,0,0,1-1.38-.46,5.15,5.15,0,0,1-1.72-1.41,6.15,6.15,0,0,1-.88-1.92,8.14,8.14,0,0,1-.33-2.33l.12-9.35a5.72,5.72,0,0,1,1.65-3.38,4.2,4.2,0,0,1,1.55-.92,8.55,8.55,0,0,1,1-.24,1.59,1.59,0,0,0,1.34-1.54l0-1.53a1.57,1.57,0,0,0-1.21-1.56,7.27,7.27,0,0,1-1.1-.34,4.36,4.36,0,0,1-1.5-1.09,5.08,5.08,0,0,1-1.27-2.1,11.6,11.6,0,0,1-.3-3.21l.13-9.31a7,7,0,0,1,1.41-4.7,4.19,4.19,0,0,1,1.7-1.14,7.19,7.19,0,0,1,1.29-.31,1.57,1.57,0,0,0,1.32-1.53l0-1.32a1.59,1.59,0,0,0-1.56-1.61l-3.3,0a34.36,34.36,0,0,0-8.44.72,16.34,16.34,0,0,0-5.92,2.82,13,13,0,0,0-5.32,10.88A14.17,14.17,0,0,0,120.16,165.85Z" transform="translate(-87.12 -144.94)"/><rect x="58.71" y="0.07" width="17.67" height="55.99" rx="2.88"/><line class="cls-2" x1="100" y1="56.03" y2="56.03"/></svg>